<?xml version="1.0" encoding="UTF-8" standalone="no"?>
<!-- Created with Inkscape (http://www.inkscape.org/) -->

<svg
   xmlns:dc="http://purl.org/dc/elements/1.1/"
   xmlns:cc="http://creativecommons.org/ns#"
   xmlns:rdf="http://www.w3.org/1999/02/22-rdf-syntax-ns#"
   xmlns:svg="http://www.w3.org/2000/svg"
   xmlns="http://www.w3.org/2000/svg"
   xmlns:sodipodi="http://sodipodi.sourceforge.net/DTD/sodipodi-0.dtd"
   xmlns:inkscape="http://www.inkscape.org/namespaces/inkscape"
   width="343pt"
   height="340pt"
   id="svg2998"
   version="1.1"
   inkscape:version="0.48.2 r9819"
   sodipodi:docname="New document 2">
  <defs
     id="defs3000" />
  <sodipodi:namedview
     pagecolor="#ffffff"
     bordercolor="#666666"
     borderopacity="1.0"
     inkscape:pageopacity="0.0"
     inkscape:pageshadow="2"
     inkscape:zoom="0.8"
     inkscape:cx="210"
     inkscape:cy="210"
     inkscape:document-units="pt"
     inkscape:current-layer="layer1"
     id="namedview3002"
     showgrid="false"
     inkscape:window-width="1024"
     inkscape:window-height="706"
     inkscape:window-x="-8"
     inkscape:window-y="-8"
     inkscape:window-maximized="1" />
  <metadata
     id="metadata3004">
    <rdf:RDF>
      <cc:Work
         rdf:about="">
        <dc:format>image/svg+xml</dc:format>
        <dc:type
           rdf:resource="http://purl.org/dc/dcmitype/StillImage" />
        <dc:title></dc:title>
      </cc:Work>
    </rdf:RDF>
  </metadata>
  <g
     inkscape:label="Layer 1"
     inkscape:groupmode="layer"
     id="layer1">
    <path
       style="fill:#104679;fill-opacity:1"
       d="m 25.677888,364.04604 c -4.938293,-1.20872 -9.317653,-4.71996 -11.428286,-9.16291 -1.145594,-2.41151 -1.278081,-3.30247 -1.420052,-9.55051 l -0.15658,-6.89091 6.723302,0 6.723323,0 0.856926,3.98778 c 1.745956,8.12485 2.096581,8.34327 13.392847,8.34327 7.90401,0 8.674372,-0.0778 9.935398,-1.00149 2.592162,-1.89908 3.057939,-3.60027 3.058779,-11.17157 4.19e-4,-6.59582 -0.04451,-6.90757 -1.201657,-8.28277 l -1.202425,-1.42898 -11.974916,-0.20621 -11.974893,-0.20621 -3.218086,-1.54774 c -4.069556,-1.95722 -7.659703,-5.75275 -9.121812,-9.64368 -0.971142,-2.58434 -1.03198,-3.47304 -0.869063,-12.69212 l 0.175221,-9.91322 1.547855,-3.18629 c 1.86388,-3.83693 5.318301,-7.2363 9.204364,-9.0577 l 2.765101,-1.296 14.023569,0 14.02357,0 2.90143,1.35435 c 3.04869,1.42313 6.397072,4.33261 8.055254,6.99948 1.577446,2.53696 2.329634,6.27479 2.335785,11.60713 l 0.007,4.97025 -6.649112,-0.13442 -6.649089,-0.13444 -0.995073,-3.8686 c -1.132616,-4.40313 -1.856843,-5.75666 -3.47467,-6.49379 -0.672361,-0.30636 -4.657266,-0.51796 -9.753163,-0.51796 -8.106539,0 -8.695179,0.062 -9.949052,1.0483 -2.1176,1.66571 -2.666258,3.64094 -2.666258,9.59872 0,5.62901 0.569862,7.74312 2.279072,8.45486 0.475285,0.19783 4.781063,0.44422 9.568439,0.54737 14.932385,0.32168 15.267772,0.35637 18.041677,1.86611 3.41565,1.85904 6.546801,5.06733 8.168519,8.36976 1.312844,2.67343 1.358094,3.02731 1.511924,11.82371 0.178948,10.22454 -0.297034,14.38497 -2.056645,17.98152 -1.581617,3.23267 -5.124488,6.73601 -8.480209,8.38558 l -2.67814,1.31651 -13.781804,0.0888 c -7.579968,0.0488 -14.598675,-0.11114 -15.597127,-0.35555 z m 58.806745,-17.5045 c 0.165433,-9.90719 0.424953,-26.17329 0.576803,-36.14698 0.151921,-9.97363 0.335062,-20.63638 0.407153,-23.69497 l 0.131184,-5.56108 20.271087,0 20.27103,0 3.21994,1.52555 c 3.97043,1.88106 6.68718,4.61397 8.74522,8.79727 l 1.57487,3.20108 -0.0187,12.58089 c -0.0187,12.07998 -0.0646,12.69645 -1.16661,15.48234 -1.57306,3.97693 -5.95349,8.35936 -9.93658,9.94118 -2.7531,1.09332 -3.55874,1.16091 -15.76081,1.32191 l -12.859405,0.16964 -0.317916,10.92406 c -0.17498,6.00822 -0.317906,12.84737 -0.317906,15.19805 l 0,4.27399 -7.559839,0 -7.559838,0 0.300694,-18.01301 z m 36.733117,-26.92552 c 0.65097,-0.24751 1.69877,-1.17234 2.32847,-2.0552 1.07758,-1.51083 1.15388,-2.08478 1.29837,-9.76787 0.16567,-8.80788 -0.10412,-10.25895 -2.21846,-11.92189 -1.11803,-0.87946 -2.00168,-0.95075 -11.78204,-0.95075 l -10.57337,0 -0.0515,6.40732 c -0.0282,3.52402 -0.11323,9.0186 -0.1892,12.21016 -0.07593,3.19156 -0.03989,5.96606 0.0797,6.16553 0.31595,0.52636 19.70457,0.44615 21.10764,-0.0874 z m 46.0276,44.50075 c -4.82536,-1.23942 -9.48685,-5.24587 -11.76993,-10.11608 l -1.28649,-2.74434 -0.1114,-24.66214 c -0.0615,-13.56417 0.0926,-26.58051 0.34182,-28.9252 0.78719,-7.4034 3.94368,-12.06489 10.16644,-15.01365 l 3.1432,-1.48947 11.20859,-0.19013 c 15.49302,-0.26294 19.16981,0.46181 23.96248,4.72323 1.43789,1.27854 2.87543,3.2351 3.86855,5.2653 l 1.58037,3.23074 0,28.53069 0,28.53072 -1.2865,2.74435 c -1.80034,3.8405 -4.7727,6.87719 -8.55531,8.74049 l -3.19035,1.57158 -13.31036,0.0883 c -7.32067,0.0484 -13.96313,-0.0794 -14.76102,-0.28431 z m 23.07665,-14.0959 c 0.61582,-0.28061 1.65965,-1.29811 2.31969,-2.26111 l 1.2001,-1.75093 0.13934,-22.69999 c 0.096,-15.63257 -0.027,-23.20421 -0.39495,-24.31952 -0.29396,-0.89074 -1.1895,-2.17065 -1.99003,-2.84428 -1.43823,-1.21018 -1.55796,-1.22473 -10.05749,-1.22473 -7.99099,0 -8.69318,0.0718 -9.8858,1.00983 -2.75927,2.17042 -2.71521,1.72323 -2.71521,27.54522 l 0,23.76736 1.64416,1.64413 1.64415,1.64416 8.4881,0 c 4.92359,0 8.95831,-0.21414 9.60774,-0.51014 z m 35.59861,-17.49031 c -0.0433,-17.62704 -0.0977,-36.40133 -0.12069,-41.72062 l -0.0421,-9.67143 20.07962,0 20.07957,0 3.19111,1.57159 c 3.78339,1.86325 6.75536,4.89933 8.55605,8.74051 1.28543,2.7421 1.28647,2.7541 1.28647,14.83362 l 0,12.08928 -1.39863,2.76027 c -1.48211,2.92497 -4.97024,6.77674 -7.18474,7.93373 -0.73143,0.38211 -1.32983,0.90824 -1.32983,1.16913 0,0.26091 2.19895,5.64109 4.88655,11.95598 2.68758,6.31486 5.84291,13.73342 7.01175,16.48566 1.16892,2.75223 2.12526,5.20571 2.12526,5.45216 0,0.26208 -3.25145,0.39291 -7.83341,0.31521 l -7.83343,-0.13282 -1.62484,-3.86858 c -1.89692,-4.51634 -3.30029,-7.89074 -7.54168,-18.13392 -1.70698,-4.12244 -3.38092,-8.09378 -3.71985,-8.82517 l -0.61629,-1.32984 -6.70447,0 -6.70447,0 0.0379,16.07878 0.0379,16.07873 -7.27942,0.13351 -7.27945,0.13351 -0.0785,-32.04919 z m 36.94273,-16.22018 1.57985,-1.57954 0.16241,-6.12703 c 0.216,-8.15414 -0.0825,-9.88859 -2.06186,-11.98741 l -1.59959,-1.69609 -10.21882,0 -10.21879,0 0,11.28332 c 0,6.20582 0.15682,11.44021 0.34863,11.63194 0.19176,0.19176 4.86659,0.28242 10.38854,0.20153 l 10.03992,-0.14723 z m 46.22012,32.16543 c -0.0494,-8.84329 -0.12723,-16.94917 -0.17312,-18.01304 -0.0454,-1.06385 -0.12508,-9.02635 -0.17685,-17.69446 -0.0515,-8.66813 -0.21693,-16.22997 -0.36698,-16.80411 -0.26868,-1.02744 -0.43218,-1.04389 -10.37158,-1.04389 l -10.09861,0 0,-7.01179 0,-7.01179 28.04715,0 28.04714,0 0,7.01179 0,7.01179 -10.12649,0 c -5.56951,0 -10.21836,0.1631 -10.33071,0.36267 -0.11227,0.19946 -0.0273,10.26379 0.18896,22.36515 0.21623,12.10139 0.46412,27.60587 0.55088,34.45447 l 0.15775,12.45196 -7.62872,0 -7.62873,0 z m 58.47914,15.41161 c -3.07487,-0.8495 -6.71834,-3.40514 -8.86206,-6.21614 -2.62119,-3.4372 -3.58772,-7.1238 -3.58772,-13.6847 l 0,-5.4911 6.33519,-0.14772 c 7.18642,-0.16776 6.56398,-0.51784 7.90286,4.44613 0.46632,1.72877 1.18217,3.86001 1.5908,4.73612 1.272,2.72712 2.41051,3.00105 12.47327,3.00105 l 9.00727,0 1.37794,-1.37798 c 1.85245,-1.85245 2.12315,-3.77562 1.58651,-11.27183 -0.44649,-6.23717 -0.48281,-6.3814 -1.93411,-7.67813 l -1.47909,-1.32159 -11.78122,-0.18779 -11.78122,-0.18781 -3.20286,-1.50618 c -4.51318,-2.12236 -6.89704,-4.45764 -8.98789,-8.80473 l -1.76255,-3.66445 -0.0349,-10.16773 c -0.0346,-10.03377 -0.0186,-10.20391 1.2514,-12.9121 1.71921,-3.66739 4.59048,-6.68097 8.26301,-8.67253 l 3.02334,-1.63954 14.50715,0 14.50715,0 2.80904,1.31612 c 3.80228,1.7815 7.66977,5.80039 9.06582,9.4207 0.82055,2.12801 1.13664,4.17512 1.31225,8.49916 l 0.23138,5.69601 -6.64657,-0.13491 -6.64654,-0.13491 -1.32363,-4.07561 c -0.96408,-2.96852 -1.73845,-4.44628 -2.85082,-5.44016 l -1.5272,-1.36457 -8.73534,-0.38715 c -5.22245,-0.23138 -9.52384,0.12509 -10.06601,0.4153 -1.84082,0.98515 -2.46056,3.47784 -2.45976,9.25657 8.1e-4,6.05891 0.70216,8.34127 2.90067,9.4398 0.84455,0.42198 4.13347,0.60624 10.91244,0.61119 10.80629,0.009 14.35544,0.46946 17.75079,2.30823 3.07057,1.66292 6.41282,5.31482 7.97656,8.71559 1.16723,2.53843 1.30918,3.5535 1.73157,12.38279 0.49759,10.40185 0.21785,13.44433 -1.58902,17.2884 -1.46893,3.12509 -4.61118,6.1176 -8.25165,7.85859 l -3.14319,1.50316 -13.7818,0.10487 c -10.17068,0.0775 -14.38421,-0.0615 -16.08092,-0.53026 z"
       id="path3769"
       inkscape:connector-curvature="0"
       sodipodi:nodetypes="csscccssscscccssscsscccssscccsssssssssssscscccsscccsscsssscsscccccssssscsscssscssscssscccsscsssscsssssscccsscscccssscssssssscssscccccccccccsscccscsccscscscccccccscsscccscsscsssscssscccsscssscccssscccsscscsssssssscscc" />
    <text
       xml:space="preserve"
       style="font-size:24.91441345px;font-style:normal;font-variant:normal;font-weight:normal;font-stretch:normal;text-align:center;line-height:125%;letter-spacing:0px;word-spacing:0px;writing-mode:lr-tb;text-anchor:middle;fill:#104679;fill-opacity:1;stroke:none;font-family:Arial;-inkscape-font-specification:Arial"
       x="381.82486"
       y="318.65237"
       id="text4316"
       sodipodi:linespacing="125%"
       transform="scale(1.0985113,0.91032291)"><tspan
         sodipodi:role="line"
         id="tspan4318"
         x="381.82486"
         y="318.65237"
         style="font-size:8.30480385px;font-style:normal;font-variant:normal;font-weight:bold;font-stretch:normal;fill:#104679;fill-opacity:1;font-family:Arial;-inkscape-font-specification:Arial Bold">TM</tspan></text>
    <path
       style="fill:#da2d1c;fill-opacity:1;stroke:#ff2a2a;stroke-width:2.39238763px;stroke-linecap:butt;stroke-linejoin:miter;stroke-opacity:0"
       d="m 43.540455,148.55811 151.687515,-1.01806 -25.45097,39.70342 -67.19037,0 -24.432918,38.68544 107.911878,0 99.76772,-155.759708 123.18244,193.427118 -46.82969,2.03606 -24.43289,-39.70347 -71.2626,-2.03606 24.43292,-37.6674 23.41484,1.01802 -29.52311,-42.75753 -77.37081,122.16441 -201.5713058,-3.05403 49.8838008,-77.37087 -35.631304,0 z"
       id="path2987"
       inkscape:connector-curvature="0" />
    <path
       style="fill:#da2d1c;fill-opacity:1;stroke:#ff2a2a;stroke-width:2.39238763px;stroke-linecap:butt;stroke-linejoin:miter;stroke-opacity:0"
       d="M 64.206614,112.21411 222.00233,111.19611 245.4172,71.49265 85.585395,73.528698 z"
       id="path3761"
       inkscape:connector-curvature="0" />
    <path
       style="fill:#da2d1c;fill-opacity:1;stroke:#ff2a2a;stroke-width:0.39170876;stroke-opacity:0"
       d="M 206.76916,266.75441 4.0599255,264.79586 58.899122,182.04737 l 0,63.65268 139.546208,15.66836 z"
       id="path4910"
       inkscape:connector-curvature="0" />
    <path
       style="fill:#da2d1c;fill-opacity:1;stroke:#ff2a2a;stroke-width:0.39170876;stroke-opacity:0"
       d="M 362.47341,265.77512 410.94738,264.79586 285.60059,68.941474 178.85991,235.90734 l 29.37814,-19.58542 71.97654,-103.80284 37.70197,39.17089 37.70194,74.42468 7.8342,20.56466 z"
       id="path4912"
       inkscape:connector-curvature="0" />
    <path
       style="fill:#da2d1c;fill-opacity:1;stroke:#ff2a2a;stroke-width:0.39170876;stroke-opacity:0"
       d="m 337.99162,226.11465 -72.46612,-0.97929 10.28237,-13.22018 z"
       id="path4916"
       inkscape:connector-curvature="0" />
    <path
       style="fill:#da2d1c;fill-opacity:1;stroke:#ff2a2a;stroke-width:0.39170876;stroke-opacity:0"
       d="m 290.94276,186.09854 24.95364,0.28037 2.944,10.37396 -17.94423,-1.82243 z"
       id="path4928"
       inkscape:connector-curvature="0" />
    <path
       style="fill:#da2d1c;fill-opacity:1;stroke:#ff2a2a;stroke-width:0.22992267;stroke-opacity:0"
       d="M 207.25546,266.88608 3.2819204,265.0923 58.631493,181.29916 l 5.381237,58.16829 140.16775,19.98738 z"
       id="path2990"
       inkscape:connector-curvature="0" />
  </g>
</svg>
